<mxfile host="app.diagrams.net" modified="2023-06-12T06:58:03.338Z" agent="Mozilla/5.0 (Macintosh; Intel Mac OS X 10_15_7) AppleWebKit/537.36 (KHTML, like Gecko) Chrome/114.0.0.0 Safari/537.36" etag="zMmMfqVlJk8KFQkBWie2" version="21.3.8" type="github">
  <diagram id="9M3qHXlabgps6SP91BO-" name="Page-1">
    <mxGraphModel dx="954" dy="513" grid="1" gridSize="10" guides="1" tooltips="1" connect="1" arrows="1" fold="1" page="1" pageScale="1" pageWidth="827" pageHeight="1169" math="0" shadow="0">
      <root>
        <mxCell id="0" />
        <mxCell id="1" parent="0" />
        <mxCell id="fzmjyrFyGPUT9gfRvAtI-3" value="" style="endArrow=classic;html=1;rounded=0;entryX=0.5;entryY=0;entryDx=0;entryDy=0;" parent="1" edge="1">
          <mxGeometry width="50" height="50" relative="1" as="geometry">
            <mxPoint x="420" y="40" as="sourcePoint" />
            <mxPoint x="420" y="80" as="targetPoint" />
          </mxGeometry>
        </mxCell>
        <mxCell id="fzmjyrFyGPUT9gfRvAtI-9" value="My Pick 모달창" style="ellipse;whiteSpace=wrap;html=1;" parent="1" vertex="1">
          <mxGeometry x="360" width="120" height="40" as="geometry" />
        </mxCell>
        <mxCell id="-nON0nGgF-exj52aO8rV-6" value="" style="edgeStyle=orthogonalEdgeStyle;rounded=0;orthogonalLoop=1;jettySize=auto;html=1;" parent="1" source="-nON0nGgF-exj52aO8rV-3" target="-nON0nGgF-exj52aO8rV-5" edge="1">
          <mxGeometry relative="1" as="geometry" />
        </mxCell>
        <mxCell id="x7vTHqNeUZqv8BDmo5PR-13" value="" style="edgeStyle=orthogonalEdgeStyle;rounded=0;orthogonalLoop=1;jettySize=auto;html=1;" edge="1" parent="1" source="-nON0nGgF-exj52aO8rV-3" target="x7vTHqNeUZqv8BDmo5PR-12">
          <mxGeometry relative="1" as="geometry" />
        </mxCell>
        <mxCell id="-nON0nGgF-exj52aO8rV-3" value="My pick 검색결과 &lt;br&gt;데이터 검증" style="rhombus;whiteSpace=wrap;html=1;" parent="1" vertex="1">
          <mxGeometry x="360" y="320" width="120" height="80" as="geometry" />
        </mxCell>
        <mxCell id="x7vTHqNeUZqv8BDmo5PR-16" style="edgeStyle=orthogonalEdgeStyle;rounded=0;orthogonalLoop=1;jettySize=auto;html=1;entryX=1;entryY=0.5;entryDx=0;entryDy=0;" edge="1" parent="1" source="-nON0nGgF-exj52aO8rV-5" target="-nON0nGgF-exj52aO8rV-8">
          <mxGeometry relative="1" as="geometry">
            <Array as="points">
              <mxPoint x="620" y="240" />
            </Array>
          </mxGeometry>
        </mxCell>
        <mxCell id="-nON0nGgF-exj52aO8rV-5" value="재검색" style="whiteSpace=wrap;html=1;" parent="1" vertex="1">
          <mxGeometry x="560" y="320" width="120" height="80" as="geometry" />
        </mxCell>
        <mxCell id="x7vTHqNeUZqv8BDmo5PR-11" value="" style="edgeStyle=orthogonalEdgeStyle;rounded=0;orthogonalLoop=1;jettySize=auto;html=1;" edge="1" parent="1" source="-nON0nGgF-exj52aO8rV-8" target="-nON0nGgF-exj52aO8rV-3">
          <mxGeometry relative="1" as="geometry" />
        </mxCell>
        <mxCell id="-nON0nGgF-exj52aO8rV-8" value="네이버 클로바 API 통신&lt;br&gt;(상의, 하의, 신발)" style="whiteSpace=wrap;html=1;" parent="1" vertex="1">
          <mxGeometry x="360" y="200" width="120" height="80" as="geometry" />
        </mxCell>
        <mxCell id="x7vTHqNeUZqv8BDmo5PR-18" value="" style="edgeStyle=orthogonalEdgeStyle;rounded=0;orthogonalLoop=1;jettySize=auto;html=1;entryX=0.5;entryY=0;entryDx=0;entryDy=0;entryPerimeter=0;" edge="1" parent="1" source="x7vTHqNeUZqv8BDmo5PR-12" target="x7vTHqNeUZqv8BDmo5PR-19">
          <mxGeometry relative="1" as="geometry">
            <mxPoint x="220" y="440" as="targetPoint" />
            <Array as="points" />
          </mxGeometry>
        </mxCell>
        <mxCell id="x7vTHqNeUZqv8BDmo5PR-12" value="My pick 검색 결과&lt;br&gt;(상의, 하의, 신발)" style="whiteSpace=wrap;html=1;" vertex="1" parent="1">
          <mxGeometry x="360" y="440" width="120" height="80" as="geometry" />
        </mxCell>
        <mxCell id="x7vTHqNeUZqv8BDmo5PR-14" value="데이터 오류" style="text;html=1;align=center;verticalAlign=middle;resizable=0;points=[];autosize=1;strokeColor=none;fillColor=none;" vertex="1" parent="1">
          <mxGeometry x="480" y="330" width="80" height="30" as="geometry" />
        </mxCell>
        <mxCell id="x7vTHqNeUZqv8BDmo5PR-15" value="데이터 성공" style="text;html=1;align=center;verticalAlign=middle;resizable=0;points=[];autosize=1;strokeColor=none;fillColor=none;" vertex="1" parent="1">
          <mxGeometry x="420" y="400" width="80" height="30" as="geometry" />
        </mxCell>
        <mxCell id="x7vTHqNeUZqv8BDmo5PR-29" value="" style="edgeStyle=orthogonalEdgeStyle;rounded=0;orthogonalLoop=1;jettySize=auto;html=1;" edge="1" parent="1" source="x7vTHqNeUZqv8BDmo5PR-19" target="x7vTHqNeUZqv8BDmo5PR-28">
          <mxGeometry relative="1" as="geometry" />
        </mxCell>
        <mxCell id="x7vTHqNeUZqv8BDmo5PR-19" value="검색결과&lt;br&gt;select" style="shape=cylinder3;whiteSpace=wrap;html=1;boundedLbl=1;backgroundOutline=1;size=15;" vertex="1" parent="1">
          <mxGeometry x="390" y="560" width="60" height="80" as="geometry" />
        </mxCell>
        <mxCell id="x7vTHqNeUZqv8BDmo5PR-22" value="검색 결과의 각 카테고리 별 브랜드 명 노출" style="whiteSpace=wrap;html=1;" vertex="1" parent="1">
          <mxGeometry x="560" y="680" width="120" height="80" as="geometry" />
        </mxCell>
        <mxCell id="x7vTHqNeUZqv8BDmo5PR-25" value="" style="edgeStyle=orthogonalEdgeStyle;rounded=0;orthogonalLoop=1;jettySize=auto;html=1;" edge="1" parent="1" source="x7vTHqNeUZqv8BDmo5PR-24" target="-nON0nGgF-exj52aO8rV-8">
          <mxGeometry relative="1" as="geometry" />
        </mxCell>
        <mxCell id="x7vTHqNeUZqv8BDmo5PR-24" value="My Pick List 선택" style="whiteSpace=wrap;html=1;" vertex="1" parent="1">
          <mxGeometry x="360" y="80" width="120" height="80" as="geometry" />
        </mxCell>
        <mxCell id="x7vTHqNeUZqv8BDmo5PR-26" value="검색 결과의&amp;nbsp;&lt;br&gt;이미지 노출" style="whiteSpace=wrap;html=1;" vertex="1" parent="1">
          <mxGeometry x="160" y="680" width="120" height="80" as="geometry" />
        </mxCell>
        <mxCell id="x7vTHqNeUZqv8BDmo5PR-39" value="" style="edgeStyle=orthogonalEdgeStyle;rounded=0;orthogonalLoop=1;jettySize=auto;html=1;" edge="1" parent="1" source="x7vTHqNeUZqv8BDmo5PR-28">
          <mxGeometry relative="1" as="geometry">
            <mxPoint x="420" y="840" as="targetPoint" />
          </mxGeometry>
        </mxCell>
        <mxCell id="x7vTHqNeUZqv8BDmo5PR-28" value="검색 결과의 &lt;br&gt;금액의 합 노출" style="whiteSpace=wrap;html=1;" vertex="1" parent="1">
          <mxGeometry x="360" y="680" width="120" height="80" as="geometry" />
        </mxCell>
        <mxCell id="x7vTHqNeUZqv8BDmo5PR-30" value="" style="edgeStyle=orthogonalEdgeStyle;rounded=0;orthogonalLoop=1;jettySize=auto;html=1;exitX=0;exitY=0.5;exitDx=0;exitDy=0;exitPerimeter=0;" edge="1" parent="1" source="x7vTHqNeUZqv8BDmo5PR-19">
          <mxGeometry relative="1" as="geometry">
            <mxPoint x="219.5" y="640" as="sourcePoint" />
            <mxPoint x="219.5" y="680" as="targetPoint" />
          </mxGeometry>
        </mxCell>
        <mxCell id="x7vTHqNeUZqv8BDmo5PR-31" value="" style="edgeStyle=orthogonalEdgeStyle;rounded=0;orthogonalLoop=1;jettySize=auto;html=1;exitX=1;exitY=0.5;exitDx=0;exitDy=0;exitPerimeter=0;" edge="1" parent="1" source="x7vTHqNeUZqv8BDmo5PR-19">
          <mxGeometry relative="1" as="geometry">
            <mxPoint x="790.5" y="600" as="sourcePoint" />
            <mxPoint x="620" y="680" as="targetPoint" />
          </mxGeometry>
        </mxCell>
        <mxCell id="x7vTHqNeUZqv8BDmo5PR-36" value="" style="edgeStyle=orthogonalEdgeStyle;rounded=0;orthogonalLoop=1;jettySize=auto;html=1;exitX=0.5;exitY=1;exitDx=0;exitDy=0;" edge="1" parent="1" source="x7vTHqNeUZqv8BDmo5PR-26">
          <mxGeometry relative="1" as="geometry">
            <mxPoint x="410.5" y="800" as="sourcePoint" />
            <mxPoint x="420" y="840" as="targetPoint" />
            <Array as="points">
              <mxPoint x="220" y="800" />
              <mxPoint x="420" y="800" />
            </Array>
          </mxGeometry>
        </mxCell>
        <mxCell id="x7vTHqNeUZqv8BDmo5PR-37" value="" style="edgeStyle=orthogonalEdgeStyle;rounded=0;orthogonalLoop=1;jettySize=auto;html=1;exitX=0.5;exitY=1;exitDx=0;exitDy=0;" edge="1" parent="1" source="x7vTHqNeUZqv8BDmo5PR-22">
          <mxGeometry relative="1" as="geometry">
            <mxPoint x="230" y="770" as="sourcePoint" />
            <mxPoint x="420" y="840" as="targetPoint" />
            <Array as="points">
              <mxPoint x="620" y="800" />
              <mxPoint x="420" y="800" />
            </Array>
          </mxGeometry>
        </mxCell>
        <mxCell id="x7vTHqNeUZqv8BDmo5PR-42" value="" style="edgeStyle=orthogonalEdgeStyle;rounded=0;orthogonalLoop=1;jettySize=auto;html=1;" edge="1" parent="1" target="x7vTHqNeUZqv8BDmo5PR-41">
          <mxGeometry relative="1" as="geometry">
            <mxPoint x="420" y="920" as="sourcePoint" />
          </mxGeometry>
        </mxCell>
        <mxCell id="x7vTHqNeUZqv8BDmo5PR-45" value="" style="edgeStyle=orthogonalEdgeStyle;rounded=0;orthogonalLoop=1;jettySize=auto;html=1;" edge="1" parent="1" source="x7vTHqNeUZqv8BDmo5PR-41" target="x7vTHqNeUZqv8BDmo5PR-44">
          <mxGeometry relative="1" as="geometry" />
        </mxCell>
        <mxCell id="x7vTHqNeUZqv8BDmo5PR-48" value="" style="edgeStyle=orthogonalEdgeStyle;rounded=0;orthogonalLoop=1;jettySize=auto;html=1;" edge="1" parent="1" source="x7vTHqNeUZqv8BDmo5PR-41" target="x7vTHqNeUZqv8BDmo5PR-47">
          <mxGeometry relative="1" as="geometry" />
        </mxCell>
        <mxCell id="x7vTHqNeUZqv8BDmo5PR-49" value="" style="edgeStyle=orthogonalEdgeStyle;rounded=0;orthogonalLoop=1;jettySize=auto;html=1;" edge="1" parent="1" source="x7vTHqNeUZqv8BDmo5PR-41" target="x7vTHqNeUZqv8BDmo5PR-43">
          <mxGeometry relative="1" as="geometry" />
        </mxCell>
        <mxCell id="x7vTHqNeUZqv8BDmo5PR-41" value="구매하기 버튼" style="rhombus;whiteSpace=wrap;html=1;" vertex="1" parent="1">
          <mxGeometry x="360" y="960" width="120" height="80" as="geometry" />
        </mxCell>
        <mxCell id="x7vTHqNeUZqv8BDmo5PR-43" value="My pick 검색결과&lt;br style=&quot;border-color: var(--border-color);&quot;&gt;노출" style="shape=document;whiteSpace=wrap;html=1;boundedLbl=1;" vertex="1" parent="1">
          <mxGeometry x="360" y="840" width="120" height="80" as="geometry" />
        </mxCell>
        <mxCell id="x7vTHqNeUZqv8BDmo5PR-44" value="장바구니로 이동" style="whiteSpace=wrap;html=1;" vertex="1" parent="1">
          <mxGeometry x="560" y="970" width="120" height="60" as="geometry" />
        </mxCell>
        <mxCell id="x7vTHqNeUZqv8BDmo5PR-47" value="모달 창 닫기" style="whiteSpace=wrap;html=1;" vertex="1" parent="1">
          <mxGeometry x="160" y="970" width="120" height="60" as="geometry" />
        </mxCell>
        <mxCell id="x7vTHqNeUZqv8BDmo5PR-51" value="닫기" style="text;html=1;align=center;verticalAlign=middle;resizable=0;points=[];autosize=1;strokeColor=none;fillColor=none;" vertex="1" parent="1">
          <mxGeometry x="300" y="968" width="40" height="30" as="geometry" />
        </mxCell>
        <mxCell id="x7vTHqNeUZqv8BDmo5PR-52" value="구매하기" style="text;html=1;align=center;verticalAlign=middle;resizable=0;points=[];autosize=1;strokeColor=none;fillColor=none;" vertex="1" parent="1">
          <mxGeometry x="475" y="968" width="70" height="30" as="geometry" />
        </mxCell>
      </root>
    </mxGraphModel>
  </diagram>
</mxfile>
